<svg width="1206" height="425" viewBox="0 0 1206 425" fill="none" xmlns="http://www.w3.org/2000/svg">
<path d="M44.5 25.8313C31.7 2.63127 9.5 13.6693 0 22.8359V424.331H1206V22.8313C1191.17 34.8313 1157.7 56.4313 1136.5 46.8313C1115.3 37.2313 1088 44.1646 1077 48.8313C1059.33 54.8313 1031 60.8313 1016.5 46.8313C1004.21 34.962 975.667 24.8313 959 23.8313C947.667 23.6646 921.2 26.2313 906 37.8313C887 52.3313 874.5 88.3313 818.5 46.8313C753.312 -1.47775 729 -2.16872 718 1.83128C707 5.83128 684.5 42.3313 678.5 44.8313C672.5 47.3313 648.5 38.8313 642.5 34.8313C636.5 30.8313 597 24.3313 574.5 37.8313C550.919 51.9799 520.087 5.83129 497 5.83129C477 5.83129 478.5 12.8683 458.5 23.8313C436 36.1646 416 41.3313 405.5 31.3313C391.982 18.4567 338.336 14.1773 311.5 24.3313C293 31.3313 240.5 8.83127 202.5 1.83128C179 -2.49765 153.667 15.4979 137.5 22.8313C111.833 33.4979 57.3 49.0313 44.5 25.8313Z" fill="#D9D9D9"/>
</svg>
